<?xml version="1.0" encoding="UTF-8" standalone="no"?>
<!-- Created with Inkscape (http://www.inkscape.org/) -->

<svg
   xmlns:osb="http://www.openswatchbook.org/uri/2009/osb"
   xmlns:dc="http://purl.org/dc/elements/1.1/"
   xmlns:cc="http://creativecommons.org/ns#"
   xmlns:rdf="http://www.w3.org/1999/02/22-rdf-syntax-ns#"
   xmlns:svg="http://www.w3.org/2000/svg"
   xmlns="http://www.w3.org/2000/svg"
   xmlns:xlink="http://www.w3.org/1999/xlink"
   xmlns:sodipodi="http://sodipodi.sourceforge.net/DTD/sodipodi-0.dtd"
   xmlns:inkscape="http://www.inkscape.org/namespaces/inkscape"
   width="32px"
   height="32px"
   id="svg4226"
   version="1.1"
   inkscape:version="0.48.4 r9939"
   sodipodi:docname="icon.svg"
   inkscape:export-filename="/home/mwringe/AndroidStudioProjects/Chat/app/src/main/res/drawable/application_icon.png"
   inkscape:export-xdpi="270"
   inkscape:export-ydpi="270">
  <defs
     id="defs4228">
    <linearGradient
       id="linearGradient6533"
       osb:paint="solid">
      <stop
         style="stop-color:#004400;stop-opacity:1;"
         offset="0"
         id="stop6535" />
    </linearGradient>
    <linearGradient
       id="linearGradient5083">
      <stop
         style="stop-color:#003300;stop-opacity:1;"
         offset="0"
         id="stop5085" />
      <stop
         style="stop-color:#003300;stop-opacity:0;"
         offset="1"
         id="stop5087" />
    </linearGradient>
    <clipPath
       id="SVGID_117_">
      <use
         height="1052.3622"
         width="744.09448"
         y="0"
         x="0"
         style="overflow:visible"
         xlink:href="#SVGID_116_"
         overflow="visible"
         id="use756" />
    </clipPath>
    <clipPath
       id="clipPath4193">
      <use
         height="1052.3622"
         width="744.09448"
         y="0"
         x="0"
         style="overflow:visible"
         xlink:href="#SVGID_116_"
         overflow="visible"
         id="use4195" />
    </clipPath>
    <clipPath
       id="clipPath4197">
      <use
         height="1052.3622"
         width="744.09448"
         y="0"
         x="0"
         style="overflow:visible"
         xlink:href="#SVGID_116_"
         overflow="visible"
         id="use4199" />
    </clipPath>
    <clipPath
       id="clipPath4201">
      <use
         height="1052.3622"
         width="744.09448"
         y="0"
         x="0"
         style="overflow:visible"
         xlink:href="#SVGID_116_"
         overflow="visible"
         id="use4203" />
    </clipPath>
    <clipPath
       id="clipPath4205">
      <use
         height="1052.3622"
         width="744.09448"
         y="0"
         x="0"
         style="overflow:visible"
         xlink:href="#SVGID_116_"
         overflow="visible"
         id="use4207" />
    </clipPath>
    <clipPath
       id="clipPath4209">
      <use
         height="1052.3622"
         width="744.09448"
         y="0"
         x="0"
         style="overflow:visible"
         xlink:href="#SVGID_116_"
         overflow="visible"
         id="use4211" />
    </clipPath>
    <defs
       id="defs752">
      <rect
         height="96"
         width="96"
         y="1363.613"
         x="32.591999"
         id="SVGID_116_" />
    </defs>
    <clipPath
       id="clipPath4216">
      <use
         id="use4218"
         overflow="visible"
         xlink:href="#SVGID_116_"
         style="overflow:visible"
         x="0"
         y="0"
         width="744.09448"
         height="1052.3622" />
    </clipPath>
  </defs>
  <sodipodi:namedview
     id="base"
     pagecolor="#ffffff"
     bordercolor="#666666"
     borderopacity="1.0"
     inkscape:pageopacity="0.0"
     inkscape:pageshadow="2"
     inkscape:zoom="11.197802"
     inkscape:cx="10.026062"
     inkscape:cy="16"
     inkscape:current-layer="layer1"
     showgrid="true"
     inkscape:grid-bbox="true"
     inkscape:document-units="px"
     inkscape:window-width="1181"
     inkscape:window-height="875"
     inkscape:window-x="1367"
     inkscape:window-y="78"
     inkscape:window-maximized="0" />
  <metadata
     id="metadata4231">
    <rdf:RDF>
      <cc:Work
         rdf:about="">
        <dc:format>image/svg+xml</dc:format>
        <dc:type
           rdf:resource="http://purl.org/dc/dcmitype/StillImage" />
        <dc:title></dc:title>
      </cc:Work>
    </rdf:RDF>
  </metadata>
  <g
     id="layer1"
     inkscape:label="Layer 1"
     inkscape:groupmode="layer">
    <path
       id="path758"
       d="m 80.583,1382.734 c -10.654,0 -19.289,8.635 -19.289,19.291 0,10.658 8.635,19.295 19.289,19.295 10.66,0 19.293,-8.637 19.293,-19.295 -0.001,-10.656 -8.633,-19.291 -19.293,-19.291 m 0.941,34.569 c -5.752,0 -10.81,-3.773 -13.758,-9.49 h 27.512 c -2.947,5.716 -8,9.49 -13.754,9.49"
       clip-path="url(#SVGID_117_)"
       inkscape:connector-curvature="0"
       style="fill:#008000;fill-opacity:1;stroke:#333333;stroke-width:1.69297342999999989;stroke-miterlimit:4;stroke-opacity:1;stroke-dasharray:none"
       transform="matrix(0.44537025,0,0,0.44537025,-22.988343,-612.69044)" />
    <path
       id="path762"
       d="m 107.649,1393.723 c -2.131,0 -4.111,0.645 -5.758,1.746 0.641,2.073 0.984,4.274 0.984,6.557 0,1.783 -0.215,3.517 -0.613,5.18 h 13.289 c -1.584,3.074 -4.301,5.104 -7.395,5.104 -2.498,0 -4.74,-1.338 -6.35,-3.467 -0.32,0.996 -0.707,1.961 -1.158,2.891 1.846,1.693 4.299,2.736 7,2.736 5.732,0 10.375,-4.644 10.375,-10.375 0.001,-5.73 -4.642,-10.372 -10.374,-10.372"
       clip-path="url(#SVGID_117_)"
       inkscape:connector-curvature="0"
       style="fill:#008000;fill-opacity:1;stroke:#1a1a1a;stroke-width:0.99847502000000021;stroke-miterlimit:4;stroke-opacity:1;stroke-dasharray:none"
       transform="matrix(0.44537025,0,0,0.44537025,-22.988343,-612.69044)" />
    <path
       id="path764"
       d="m 92.225,1423.82 c -3.471,1.861 -7.434,2.92 -11.644,2.92 -4.205,0 -8.166,-1.059 -11.636,-2.92 -7.494,1.971 -13.367,6.637 -16.063,16.672 h 55.406 c -2.69,-10.037 -8.563,-14.703 -16.063,-16.672"
       clip-path="url(#SVGID_117_)"
       inkscape:connector-curvature="0"
       style="fill:#008000;fill-opacity:1;stroke:#333333;stroke-width:1.69233060000000002;stroke-miterlimit:4;stroke-opacity:1;stroke-dasharray:none"
       transform="matrix(0.44537025,0,0,0.44537025,-22.988343,-612.69044)" />
    <path
       id="path768"
       d="m 104.682,1424.777 h 17.865 c -1.447,-5.396 -4.605,-7.906 -8.639,-8.965 -1.865,1 -3.998,1.57 -6.26,1.57 -2.26,0 -4.391,-0.568 -6.256,-1.57 -2.385,0.627 -4.461,1.77 -6.063,3.711 3.615,1.182 6.732,2.938 9.353,5.254"
       clip-path="url(#SVGID_117_)"
       inkscape:connector-curvature="0"
       style="fill:#008000;fill-opacity:1;stroke:#1a1a1a;stroke-opacity:1"
       transform="matrix(0.44537025,0,0,0.44537025,-22.988343,-612.69044)" />
  </g>
</svg>
